<svg width="672" height="175" viewBox="0 0 672 175" fill="none" xmlns="http://www.w3.org/2000/svg">
<path d="M7.54 0.499988H131.02C132.817 0.499988 134.368 1.15332 135.675 2.45999C136.982 3.76666 137.635 5.31833 137.635 7.11499V44.355C137.635 46.1517 136.982 47.7033 135.675 49.01C134.368 50.3167 132.817 50.97 131.02 50.97H60.95V69.1H126.12C127.917 69.1 129.468 69.7533 130.775 71.06C132.082 72.3667 132.735 73.9183 132.735 75.715V112.71C132.735 114.507 132.082 116.058 130.775 117.365C129.468 118.672 127.917 119.325 126.12 119.325H60.95V165.385C60.95 167.182 60.2967 168.733 58.99 170.04C57.6833 171.347 56.1317 172 54.335 172H7.54C5.74333 172 4.19167 171.347 2.885 170.04C1.57833 168.733 0.925001 167.182 0.925001 165.385V7.11499C0.925001 5.31833 1.57833 3.76666 2.885 2.45999C4.19167 1.15332 5.74333 0.499988 7.54 0.499988ZM265.056 0.499988H313.076C314.873 0.499988 316.424 1.15332 317.731 2.45999C319.038 3.76666 319.691 5.31833 319.691 7.11499V105.605C319.691 128.472 312.586 145.703 298.376 157.3C284.166 168.733 264.811 174.45 240.311 174.45C215.974 174.45 196.619 168.733 182.246 157.3C168.036 145.867 160.931 128.635 160.931 105.605V7.11499C160.931 5.31833 161.584 3.76666 162.891 2.45999C164.198 1.15332 165.749 0.499988 167.546 0.499988H215.566C217.363 0.499988 218.914 1.15332 220.221 2.45999C221.528 3.76666 222.181 5.31833 222.181 7.11499V106.34C222.181 118.917 228.224 125.205 240.311 125.205C252.398 125.205 258.441 118.917 258.441 106.34V7.11499C258.441 5.31833 259.094 3.76666 260.401 2.45999C261.708 1.15332 263.259 0.499988 265.056 0.499988ZM452.435 0.499988H496.78C498.577 0.499988 500.128 1.15332 501.435 2.45999C502.742 3.76666 503.395 5.31833 503.395 7.11499V165.385C503.395 167.182 502.742 168.733 501.435 170.04C500.128 171.347 498.577 172 496.78 172H458.07C453.823 172 450.475 170.122 448.025 166.365L406.62 103.89V165.385C406.62 167.182 405.967 168.733 404.66 170.04C403.353 171.347 401.802 172 400.005 172H355.66C353.863 172 352.312 171.347 351.005 170.04C349.698 168.733 349.045 167.182 349.045 165.385V7.11499C349.045 5.31833 349.698 3.76666 351.005 2.45999C352.312 1.15332 353.863 0.499988 355.66 0.499988H394.37C398.943 0.499988 402.292 2.37832 404.415 6.13499L445.82 74V7.11499C445.82 5.31833 446.473 3.76666 447.78 2.45999C449.087 1.15332 450.638 0.499988 452.435 0.499988ZM541.803 0.499988H665.283C667.079 0.499988 668.631 1.15332 669.938 2.45999C671.244 3.76666 671.898 5.31833 671.898 7.11499V44.355C671.898 46.1517 671.244 47.7033 669.938 49.01C668.631 50.3167 667.079 50.97 665.283 50.97H595.213V69.1H660.383C662.179 69.1 663.731 69.7533 665.038 71.06C666.344 72.3667 666.998 73.9183 666.998 75.715V112.71C666.998 114.507 666.344 116.058 665.038 117.365C663.731 118.672 662.179 119.325 660.383 119.325H595.213V165.385C595.213 167.182 594.559 168.733 593.253 170.04C591.946 171.347 590.394 172 588.598 172H541.803C540.006 172 538.454 171.347 537.148 170.04C535.841 168.733 535.188 167.182 535.188 165.385V7.11499C535.188 5.31833 535.841 3.76666 537.148 2.45999C538.454 1.15332 540.006 0.499988 541.803 0.499988Z" fill="white"/>
</svg>
